<svg width="458" height="584" viewBox="0 0 458 584" fill="none" xmlns="http://www.w3.org/2000/svg">
<path d="M458 166.29C457.978 271.633 445.879 343.836 401.277 418.578L400.513 419.918L400.474 419.917C390.055 437.223 377.754 454.647 364.351 470.817C329.423 512.884 284.448 550.575 228.408 584C167.819 547.796 119.017 505.037 83.0888 458.762C69.4672 441.155 56.0472 422.73 45.8256 403.844C1.88573 324.698 0.0583057 191.261 0 168.918V0H458V166C458 166.097 458 166.194 458 166.29Z" fill="#234429"/>
<path d="M96.051 403.844H45.8256C56.0472 422.73 69.4672 441.155 83.0888 458.762L159.431 456.751C167.468 429.293 202.96 429.293 211.666 454.072L245.149 452.733C245.149 452.733 325.287 464.789 364.351 470.817C377.771 454.627 390.085 437.179 400.513 419.852L287.339 419.247V354.284C287.339 332.184 257.873 341.56 257.873 359.642V404.514L96.051 403.844Z" fill="#2C5F34"/>
<path d="M96.7207 296.688L96.051 403.844L257.873 404.514V359.642C257.873 341.56 287.339 332.184 287.339 354.284V419.247L400.513 419.918L401.277 418.578C445.92 343.767 458 271.5 458 166L349.857 206.945C345.684 195.659 342.087 190.296 330.436 184.844V140.643C331.361 126.44 329.077 120.242 319.052 113.184C316.574 98.092 315.912 89.1727 315.736 74.9963C315.817 89.3626 315.02 98.2735 311.685 113.184C301.618 120.996 300.935 127.731 301.64 140.643L302.31 184.844C285.799 196.699 282.332 207.318 284.229 231.725L248.736 263.872V289.321L163.688 313.432V294.01L153.643 285.303C153.356 270.34 150.748 263.041 142.259 253.156L142.304 252.983C145.611 240.42 147.343 233.839 138.24 223.688V195.56C138.24 177.477 130.204 186.184 130.874 143.321C130.204 186.184 121.499 180.156 121.499 195.56V223.688C114.217 235.648 114.701 242.026 118.82 253.156C111.033 262.368 110.678 269.447 107.436 285.303L96.7207 296.688Z" fill="#2C5F34"/>
<path d="M96.0511 403.844H45.8257C56.0473 422.73 69.4673 441.155 83.0889 458.762L159.432 456.751C167.468 429.293 202.96 429.293 211.666 454.072L245.15 452.733C245.15 452.733 325.287 464.789 364.351 470.817C377.771 454.627 390.085 437.179 400.513 419.852L287.339 419.247V354.284C287.339 332.184 257.873 341.56 257.873 359.642V404.514L96.0511 403.844Z" fill="#295230"/>
</svg>
