<svg width="342" height="436" viewBox="0 0 342 436" fill="none" xmlns="http://www.w3.org/2000/svg">
<g clip-path="url(#clip0_133_275)">
<path d="M62.335 342.5L119.335 340.999C125.335 320.499 151.835 320.499 158.335 338.999L183.335 337.999C183.335 337.999 243.168 347 272.335 351.5C246.257 382.907 212.676 411.045 170.835 436C125.597 408.971 89.1602 377.048 62.335 342.5Z" fill="#4E555F"/>
<path d="M72.835 301.5H35.335C42.9668 315.6 52.1646 329.355 62.335 342.5L119.335 341C125.335 320.5 151.835 320.5 158.335 339L183.335 338C183.335 338 243.168 347 272.335 351.5C282.355 339.413 291.549 326.387 299.335 313.451L214.835 313V264.5C214.835 248 192.835 255 192.835 268.5V302L72.835 301.5Z" fill="#87817D"/>
<path d="M73.335 221.5L72.835 301.5L192.835 302V268.5C192.835 255 214.835 248 214.835 264.5V313L299.335 313.5L299.905 312.5C333.237 256.648 346.078 193.196 340.622 124.5L262.335 154.5C259.22 146.074 256.534 142.071 247.835 138V105C248.525 94.3967 246.82 89.7698 239.335 84.5002C237.485 73.2331 236.991 66.5741 236.859 55.9904C236.92 66.7159 236.325 73.3686 233.835 84.5002C226.318 90.3328 225.809 95.3605 226.335 105L226.835 138C214.507 146.851 211.919 154.779 213.335 173L186.835 197V216L123.335 234V219.5L115.835 213C115.621 201.829 113.674 196.38 107.335 189L107.369 188.871C109.838 179.491 111.131 174.578 104.335 167V146C104.335 132.5 98.335 139 98.835 107C98.335 139 91.835 134.5 91.835 146V167C86.3983 175.929 86.7597 180.691 89.835 189C84.0209 195.877 83.756 201.163 81.335 213L73.335 221.5Z" fill="#9A9591"/>
<path d="M19.8353 28L170.835 0L322.109 28.0001C331.826 60.82 338.042 92.7952 340.559 123.711V124.52L262.335 154.5C259.22 146.074 256.534 142.07 247.835 138V105C248.525 94.3967 246.82 89.7697 239.335 84.5002C237.485 73.233 236.991 66.5741 236.859 55.9903C236.92 66.7158 236.325 73.3685 233.835 84.5002C226.318 90.3327 225.809 95.3604 226.335 105L226.835 138C214.508 146.851 211.919 154.778 213.335 173L186.835 197V216L123.335 234V219.5L115.835 213C115.621 201.829 113.674 196.38 107.335 189L107.369 188.871C109.838 179.491 111.131 174.578 104.335 167V146C104.335 132.5 98.3351 139 98.8351 107C98.3351 139 91.8351 134.5 91.8351 146V167C86.3984 175.929 86.7598 180.691 89.8351 189C84.021 195.877 83.7561 201.162 81.3351 213L73.3351 221.5L72.8351 301.5L35.335 301.5C-7.11568 222.615 -10.0909 129.265 19.8353 28Z" fill="#DCEAEF"/>
</g>
<defs>
<clipPath id="clip0_133_275">
<rect width="342" height="436" fill="white"/>
</clipPath>
</defs>
</svg>
